HIERARCHY
ROOT root
{
	OFFSET	0	13.1	24.9
	CHANNELS 6  Xposition Yposition Zposition Xrotation Yrotation Zrotation
	JOINT spine_1
	{
		OFFSET	0	9.99999	0
		CHANNELS 3  Xrotation Yrotation Zrotation
		JOINT spine_2
		{
			OFFSET	0	112	-10
			CHANNELS 3  Xrotation Yrotation Zrotation
			JOINT spine_3
			{
				OFFSET	0	206.5	19.3
				CHANNELS 3  Xrotation Yrotation Zrotation
				JOINT spine_4
				{
					OFFSET	0	110.4	14.6
					CHANNELS 3  Xrotation Yrotation Zrotation
					JOINT neck_1
					{
						OFFSET	0	71.8	-50.3
						CHANNELS 3  Xrotation Yrotation Zrotation
						JOINT neck_2
						{
							OFFSET	0	86.2	-25.8
							CHANNELS 3  Xrotation Yrotation Zrotation
							JOINT head_ee
							{
								OFFSET	0	179.8	-8.7
								CHANNELS 3  Xrotation Yrotation Zrotation
								End Site
								{
									OFFSET	1	0	0
								}
							}
						}
					}
					JOINT left_clavicle
					{
						OFFSET	-43.2	22.4	-70.8
						CHANNELS 3  Xrotation Yrotation Zrotation
						JOINT left_shoulder
						{
							OFFSET	-93.9	-5.79999	48.7
							CHANNELS 3  Xrotation Yrotation Zrotation
							JOINT left_elbow
							{
								OFFSET	-291.4	-30.8	15.2
								CHANNELS 3  Xrotation Yrotation Zrotation
								JOINT left_lowarm_twist
								{
									OFFSET	-110.7	-3.89999	13.6
									CHANNELS 3  Xrotation Yrotation Zrotation
									JOINT left_hand
									{
										OFFSET	-110.7	-3.89999	13.6
										CHANNELS 3  Xrotation Yrotation Zrotation
										JOINT left_ee
										{
											OFFSET	-80.8	-5.10001	12.1
											CHANNELS 3  Xrotation Yrotation Zrotation
											End Site
											{
												OFFSET	1	0	0
											}
										}
									}
								}
							}
						}
					}
					JOINT right_clavicle
					{
						OFFSET	43.2	22.4	-70.8
						CHANNELS 3  Xrotation Yrotation Zrotation
						JOINT right_shoulder
						{
							OFFSET	93.9	-5.79999	48.7
							CHANNELS 3  Xrotation Yrotation Zrotation
							JOINT right_elbow
							{
								OFFSET	291.4	-30.8	15.2
								CHANNELS 3  Xrotation Yrotation Zrotation
								JOINT right_lowarm_twist
								{
									OFFSET	110.7	-3.89999	13.6
									CHANNELS 3  Xrotation Yrotation Zrotation
									JOINT right_hand
									{
										OFFSET	110.7	-3.89999	13.6
										CHANNELS 3  Xrotation Yrotation Zrotation
										JOINT right_ee
										{
											OFFSET	80.8	-5.10001	12.1
											CHANNELS 3  Xrotation Yrotation Zrotation
											End Site
											{
												OFFSET	1	0	0
											}
										}
									}
								}
							}
						}
					}
				}
			}
		}
	}
	JOINT left_hip
	{
		OFFSET	-82.8	-127.5	0.300001
		CHANNELS 3  Xrotation Yrotation Zrotation
		JOINT left_knee
		{
			OFFSET	-28.2	-396.7	2.2
			CHANNELS 3  Xrotation Yrotation Zrotation
			JOINT left_ankle
			{
				OFFSET	-11.7	-411.3	35.4
				CHANNELS 3  Xrotation Yrotation Zrotation
				JOINT left_toes
				{
					OFFSET	0	-60	-88.6
					CHANNELS 3  Xrotation Yrotation Zrotation
					JOINT left_foot_ee
					{
						OFFSET	-22.5	-16.5	-42.2
						CHANNELS 3  Xrotation Yrotation Zrotation
						End Site
						{
							OFFSET	1	0	0
						}
					}
				}
			}
		}
	}
	JOINT right_hip
	{
		OFFSET	82.8	-127.5	0.300001
		CHANNELS 3  Xrotation Yrotation Zrotation
		JOINT right_knee
		{
			OFFSET	28.2	-396.7	2.2
			CHANNELS 3  Xrotation Yrotation Zrotation
			JOINT right_ankle
			{
				OFFSET	11.7	-411.3	35.4
				CHANNELS 3  Xrotation Yrotation Zrotation
				JOINT right_toes
				{
					OFFSET	0	-60	-88.6
					CHANNELS 3  Xrotation Yrotation Zrotation
					JOINT right_foot_ee
					{
						OFFSET	22.5	-16.5	-42.2
						CHANNELS 3  Xrotation Yrotation Zrotation
						End Site
						{
							OFFSET	1	0	0
						}
					}
				}
			}
		}
	}
}
MOTION
Frames: 12
Frame Time: 0.02
795.943803269 630.244 -1674.12108788 -159.777163343 62.9944382183 169.55895258 2.49825 -0.770768 -2.72342 2.50218 -0.595976 -2.7669 2.53052 -0.126438 -2.82749 2.51982 -0.571227 -2.77212 10.7284 -24.9298 1.1365 14.527 -41.9087 2.98969 -0.0 0.0 -0.0 11.8325 -11.7026 23.8908 -33.0428 -33.6896 47.6232 1.5561 -37.624 0.530131 15.9121 0.283679 -2.00632 2.65992 -7.88444 14.7708 -0.0 0.0 -0.0 8.80029 8.75596 -17.2549 -14.9494 6.31692 -64.282 0.329033 9.25762 -0.0266399 19.5696 -0.269516 2.47318 -1.61333 23.771 20.9754 0.0 0.0 0.0 18.4886 -43.725 2.5992 -2.36475 0.0901176 0.351697 2.6209 -2.91146 -0.388439 6.36493 -0.0 -0.0 -0.0 0.0 -0.0 41.2003 -25.7425 11.4039 -58.5118 2.04144 -8.35944 8.34268 -15.4525 1.20264 20.8714 -0.0 -0.0 0.0 0.0 0.0 
789.194770558 618.17 -1699.94757916 -153.406918683 65.508007636 162.358216811 2.5433 -0.91626 -2.54098 2.54658 -0.75277 -2.59409 2.58036 -0.312355 -2.68292 2.57106 -0.732009 -2.60002 12.8223 -24.1493 2.67853 17.0014 -41.1922 5.44886 -0.0 0.0 -0.0 12.4404 -18.2066 25.063 -27.9459 -35.6833 47.9841 2.10667 -46.216 0.899 15.0471 0.28267 -1.89584 2.88121 -8.36843 16.1056 -0.0 0.0 -0.0 7.70714 9.9879 -14.8889 -14.0733 0.191941 -67.9329 0.305755 8.61288 -0.0230245 26.4589 -0.162157 3.34613 -2.88045 25.6406 30.6852 0.0 0.0 0.0 22.5429 -42.8653 5.87213 -1.28726 0.050859 0.190996 1.96187 4.57196 -0.286326 -1.59533 0.0 0.0 -0.0 0.0 -0.0 33.2709 -28.0271 8.67107 -42.2439 0.615661 -6.30952 13.2698 -31.506 2.03739 22.3635 -0.0 -0.0 0.0 0.0 0.0 
792.012756842 621.597 -1704.62400527 -153.365771822 66.3775392084 161.537253878 2.50647 -0.941785 -2.44404 2.50945 -0.784406 -2.49897 2.54346 -0.357674 -2.5946 2.53487 -0.762825 -2.50564 12.7207 -23.6482 3.34617 16.9185 -41.0158 6.25896 -0.0 0.0 -0.0 12.4865 -19.4095 25.095 -26.5021 -35.8829 48.3332 1.92877 -43.6904 0.773278 14.2431 0.280236 -1.79318 2.91902 -8.2508 16.4235 -0.0 0.0 -0.0 6.90082 10.0659 -13.175 -14.1416 -1.80718 -70.7267 0.31726 8.93181 -0.0247791 27.5449 -0.135686 3.48233 -3.13586 26.8181 32.9738 0.0 0.0 0.0 22.6841 -43.2182 6.59995 -1.31368 0.0518577 0.194928 1.82464 6.18604 -0.266007 -3.10513 0.0 0.0 -0.0 0.0 -0.0 32.2112 -25.6357 7.1591 -34.7612 0.167541 -5.25116 14.0393 -31.6729 2.1528 22.6472 -0.0 -0.0 0.0 0.0 0.0 
786.411145576 625.244 -1709.85141922 -151.942729915 66.8904690569 159.688341364 2.53191 -0.818138 -2.38078 2.53481 -0.66503 -2.42798 2.56272 -0.252494 -2.50467 2.55454 -0.644775 -2.43344 12.5832 -23.061 3.55955 16.6084 -40.3059 6.38754 -0.0 0.0 -0.0 12.7782 -20.1371 25.72 -25.2626 -36.1183 49.193 1.80177 -41.7464 0.687112 13.0689 0.274095 -1.64334 2.93155 -8.15038 16.5564 -0.0 0.0 -0.0 6.06871 10.6268 -11.392 -12.5637 -2.55071 -74.016 0.408074 11.4284 -0.0408336 28.1251 -0.120487 3.55488 -3.34033 27.3928 34.6949 0.0 0.0 0.0 22.2932 -43.0762 5.61293 -1.35298 0.0533401 0.200778 1.73236 7.5957 -0.252457 -4.16158 0.0 0.0 -0.0 0.0 -0.0 29.5074 -23.9679 5.58869 -30.0804 -0.0409793 -4.56339 15.616 -28.545 2.32825 23.8842 -0.0 -0.0 0.0 0.0 0.0 
786.944755218 625.244 -1714.42510965 -150.761187404 67.7933371688 158.408028357 2.53191 -0.818138 -2.38078 2.53481 -0.66503 -2.42798 2.56272 -0.252494 -2.50467 2.55454 -0.644775 -2.43344 12.5832 -23.061 3.55955 16.6084 -40.3059 6.38754 -0.0 0.0 -0.0 12.7782 -20.1371 25.72 -25.2626 -36.1183 49.193 1.80177 -41.7464 0.687112 13.0689 0.274095 -1.64334 2.93155 -8.15038 16.5564 -0.0 0.0 -0.0 6.06871 10.6268 -11.392 -12.5637 -2.55071 -74.016 0.408074 11.4284 -0.0408336 28.1251 -0.120487 3.55488 -3.34033 27.3928 34.6949 0.0 0.0 0.0 22.2932 -43.0762 5.61293 -1.35298 0.0533401 0.200778 1.73236 7.5957 -0.252457 -4.16158 0.0 0.0 -0.0 0.0 -0.0 29.5074 -23.9679 5.58869 -30.0804 -0.0409793 -4.56339 15.616 -28.545 2.32825 23.8842 -0.0 -0.0 0.0 0.0 0.0 
784.606597153 619.083 -1711.83941031 -148.001066719 69.522240447 155.586325968 2.57945 -0.742347 -2.38363 2.58242 -0.589212 -2.426 2.607 -0.17991 -2.49 2.5988 -0.570785 -2.4304 12.4299 -23.6108 2.59081 16.3341 -40.3883 5.10457 -0.0 0.0 -0.0 12.8843 -20.0747 25.971 -23.2831 -36.5665 51.3802 1.35977 -33.962 0.415246 11.633 0.262412 -1.46031 2.85119 -10.5746 14.9034 -0.0 0.0 -0.0 4.69823 12.232 -8.40625 -11.1246 -2.97866 -77.2232 0.473251 13.194 -0.0547324 28.8507 -0.100445 3.6454 -3.45885 27.4784 35.6224 0.0 0.0 0.0 21.8466 -43.0446 5.04568 -1.28346 0.0507151 0.190432 3.84514 7.70407 -0.557173 -5.21522 0.0 0.0 -0.0 0.0 -0.0 27.699 -18.9173 3.29548 -23.667 -0.234107 -3.59859 17.1992 -27.954 2.53949 25.3283 -0.0 -0.0 0.0 0.0 0.0 
784.979332568 619.083 -1714.92837988 -146.993049891 70.1039360247 154.512353529 2.57945 -0.742347 -2.38363 2.58242 -0.589212 -2.426 2.607 -0.17991 -2.49 2.5988 -0.570785 -2.4304 12.4299 -23.6108 2.59081 16.3341 -40.3883 5.10457 -0.0 0.0 -0.0 12.8843 -20.0747 25.971 -23.2831 -36.5665 51.3802 1.35977 -33.962 0.415246 11.633 0.262412 -1.46031 2.85119 -10.5746 14.9034 -0.0 0.0 -0.0 4.69823 12.232 -8.40625 -11.1246 -2.97866 -77.2232 0.473251 13.194 -0.0547324 28.8507 -0.100445 3.6454 -3.45885 27.4784 35.6224 0.0 0.0 0.0 21.8466 -43.0446 5.04568 -1.28346 0.0507151 0.190432 3.84514 7.70407 -0.557173 -5.21522 0.0 0.0 -0.0 0.0 -0.0 27.699 -18.9173 3.29548 -23.667 -0.234107 -3.59859 17.1992 -27.954 2.53949 25.3283 -0.0 -0.0 0.0 0.0 0.0 
785.006189955 619.083 -1715.13952964 -146.921888066 70.1434876991 154.436683992 2.57945 -0.742347 -2.38363 2.58242 -0.589212 -2.426 2.607 -0.17991 -2.49 2.5988 -0.570785 -2.4304 12.4299 -23.6108 2.59081 16.3341 -40.3883 5.10457 -0.0 0.0 -0.0 12.8843 -20.0747 25.971 -23.2831 -36.5665 51.3802 1.35977 -33.962 0.415246 11.633 0.262412 -1.46031 2.85119 -10.5746 14.9034 -0.0 0.0 -0.0 4.69823 12.232 -8.40625 -11.1246 -2.97866 -77.2232 0.473251 13.194 -0.0547324 28.8507 -0.100445 3.6454 -3.45885 27.4784 35.6224 0.0 0.0 0.0 21.8466 -43.0446 5.04568 -1.28346 0.0507151 0.190432 3.84514 7.70407 -0.557173 -5.21522 0.0 0.0 -0.0 0.0 -0.0 27.699 -18.9173 3.29548 -23.667 -0.234107 -3.59859 17.1992 -27.954 2.53949 25.3283 -0.0 -0.0 0.0 0.0 0.0 
785.126325068 619.083 -1716.06754056 -146.605576608 70.3169856704 154.100561754 2.57945 -0.742347 -2.38363 2.58242 -0.589212 -2.426 2.607 -0.17991 -2.49 2.5988 -0.570785 -2.4304 12.4299 -23.6108 2.59081 16.3341 -40.3883 5.10457 -0.0 0.0 -0.0 12.8843 -20.0747 25.971 -23.2831 -36.5665 51.3802 1.35977 -33.962 0.415246 11.633 0.262412 -1.46031 2.85119 -10.5746 14.9034 -0.0 0.0 -0.0 4.69823 12.232 -8.40625 -11.1246 -2.97866 -77.2232 0.473251 13.194 -0.0547324 28.8507 -0.100445 3.6454 -3.45885 27.4784 35.6224 0.0 0.0 0.0 21.8466 -43.0446 5.04568 -1.28346 0.0507151 0.190432 3.84514 7.70407 -0.557173 -5.21522 0.0 0.0 -0.0 0.0 -0.0 27.699 -18.9173 3.29548 -23.667 -0.234107 -3.59859 17.1992 -27.954 2.53949 25.3283 -0.0 -0.0 0.0 0.0 0.0 
785.159691719 619.083 -1716.32070591 -146.518268329 70.3642211309 154.007849195 2.57945 -0.742347 -2.38363 2.58242 -0.589212 -2.426 2.607 -0.17991 -2.49 2.5988 -0.570785 -2.4304 12.4299 -23.6108 2.59081 16.3341 -40.3883 5.10457 -0.0 0.0 -0.0 12.8843 -20.0747 25.971 -23.2831 -36.5665 51.3802 1.35977 -33.962 0.415246 11.633 0.262412 -1.46031 2.85119 -10.5746 14.9034 -0.0 0.0 -0.0 4.69823 12.232 -8.40625 -11.1246 -2.97866 -77.2232 0.473251 13.194 -0.0547324 28.8507 -0.100445 3.6454 -3.45885 27.4784 35.6224 0.0 0.0 0.0 21.8466 -43.0446 5.04568 -1.28346 0.0507151 0.190432 3.84514 7.70407 -0.557173 -5.21522 0.0 0.0 -0.0 0.0 -0.0 27.699 -18.9173 3.29548 -23.667 -0.234107 -3.59859 17.1992 -27.954 2.53949 25.3283 -0.0 -0.0 0.0 0.0 0.0 
784.963834785 619.083 -1714.80590154 -147.0341918 70.0809811872 154.556110189 2.57945 -0.742347 -2.38363 2.58242 -0.589212 -2.426 2.607 -0.17991 -2.49 2.5988 -0.570785 -2.4304 12.4299 -23.6108 2.59081 16.3341 -40.3883 5.10457 -0.0 0.0 -0.0 12.8843 -20.0747 25.971 -23.2831 -36.5665 51.3802 1.35977 -33.962 0.415246 11.633 0.262412 -1.46031 2.85119 -10.5746 14.9034 -0.0 0.0 -0.0 4.69823 12.232 -8.40625 -11.1246 -2.97866 -77.2232 0.473251 13.194 -0.0547324 28.8507 -0.100445 3.6454 -3.45885 27.4784 35.6224 0.0 0.0 0.0 21.8466 -43.0446 5.04568 -1.28346 0.0507151 0.190432 3.84514 7.70407 -0.557173 -5.21522 0.0 0.0 -0.0 0.0 -0.0 27.699 -18.9173 3.29548 -23.667 -0.234107 -3.59859 17.1992 -27.954 2.53949 25.3283 -0.0 -0.0 0.0 0.0 0.0 
785.171707735 619.083 -1716.41140615 -146.486881576 70.3811338452 153.974526295 2.57945 -0.742347 -2.38363 2.58242 -0.589212 -2.426 2.607 -0.17991 -2.49 2.5988 -0.570785 -2.4304 12.4299 -23.6108 2.59081 16.3341 -40.3883 5.10457 -0.0 0.0 -0.0 12.8843 -20.0747 25.971 -23.2831 -36.5665 51.3802 1.35977 -33.962 0.415246 11.633 0.262412 -1.46031 2.85119 -10.5746 14.9034 -0.0 0.0 -0.0 4.69823 12.232 -8.40625 -11.1246 -2.97866 -77.2232 0.473251 13.194 -0.0547324 28.8507 -0.100445 3.6454 -3.45885 27.4784 35.6224 0.0 0.0 0.0 21.8466 -43.0446 5.04568 -1.28346 0.0507151 0.190432 3.84514 7.70407 -0.557173 -5.21522 0.0 0.0 -0.0 0.0 -0.0 27.699 -18.9173 3.29548 -23.667 -0.234107 -3.59859 17.1992 -27.954 2.53949 25.3283 -0.0 -0.0 0.0 0.0 0.0 
